<?xml version="1.0" encoding="UTF-8" standalone="no"?>
<!DOCTYPE svg PUBLIC "-//W3C//DTD SVG 1.1//EN" "http://www.w3.org/Graphics/SVG/1.1/DTD/svg11.dtd">
<svg width="100%" height="100%" viewBox="0 0 500 500" version="1.1" xmlns="http://www.w3.org/2000/svg" xmlns:xlink="http://www.w3.org/1999/xlink" xml:space="preserve" xmlns:serif="http://www.serif.com/" style="fill-rule:evenodd;clip-rule:evenodd;stroke-linejoin:round;stroke-miterlimit:2;">
    <g transform="matrix(1,0,0,1,2.84217e-14,0.774427)">
        <g id="calendar-checkmark-icon.svg" transform="matrix(3.52283,0,0,3.52283,250,249.226)">
            <g transform="matrix(1,0,0,1,-55.005,-61.44)">
                <g>
                    <path d="M1.87,14.69L24.53,14.69L24.5,14.3L24.5,4.13C24.5,1.86 26.86,0 29.76,0C32.65,0 35.02,1.87 35.02,4.13L35.02,14.3L34.99,14.69L73.58,14.69L73.55,14.3L73.55,4.13C73.55,1.86 75.91,0 78.8,0C81.69,0 84.06,1.87 84.06,4.13L84.06,14.3L84.03,14.69L108.14,14.69C109.17,14.69 110.01,15.53 110.01,16.56L110.01,36.02C110.01,37.05 109.17,37.89 108.14,37.89L1.87,37.89C0.84,37.88 0,37.04 0,36.01L0,16.55C0,15.52 0.84,14.69 1.87,14.69ZM31.35,83.53C29.08,81.56 28.83,78.12 30.8,75.84C32.77,73.56 36.21,73.31 38.49,75.28L50.94,86.08L71.25,66.04C73.38,63.92 76.84,63.93 78.96,66.06C81.08,68.19 81.07,71.65 78.94,73.77L55.02,97.37C53.02,99.36 49.78,99.51 47.61,97.63L31.35,83.53ZM0.47,42.19L109.55,42.19C109.81,42.19 110.01,42.4 110.01,42.66L110.01,122.42C110.01,122.67 109.8,122.88 109.55,122.88L0.47,122.88C0.22,122.88 0.01,122.67 0.01,122.42L0.01,42.66C0,42.4 0.21,42.19 0.47,42.19ZM8.84,50.58L102.68,50.58C103.2,50.58 103.62,51.03 103.62,51.52L103.62,114.37C103.62,114.86 103.17,115.31 102.68,115.31L8.39,115.31C7.9,115.31 7.45,114.89 7.45,114.37L7.45,51.97C7.45,50.94 8.29,50.11 9.31,50.11L8.84,50.58ZM78.34,29.87C81.23,29.87 83.6,28 83.6,25.74L83.6,15.11L83.57,14.7L73.12,14.7L73.09,15.11L73.09,25.27C73.09,27.54 75.45,29.4 78.34,29.4L78.34,29.87ZM29.29,29.87C32.18,29.87 34.55,28 34.55,25.74L34.55,15.11L34.52,14.7L24.06,14.7L24.03,15.11L24.03,25.27C24.03,27.54 26.39,29.4 29.28,29.4L29.28,29.87L29.29,29.87Z"/>
                </g>
            </g>
        </g>
        <g id="v" transform="matrix(1.22191,0,0,1.212,-57.1002,-55.3997)">
            <path d="M395.327,221.663C395.327,217.358 391.86,213.863 387.59,213.863L115.064,213.863C110.794,213.863 107.327,217.358 107.327,221.663L107.327,401.063C107.327,405.368 110.794,408.863 115.064,408.863L387.59,408.863C391.86,408.863 395.327,405.368 395.327,401.063L395.327,221.663Z" style="fill:rgb(43,110,164);"/>
        </g>
        <g id="gun-target-icon.svg" transform="matrix(1.18403,0,0,1.18403,250,325.758)">
            <g transform="matrix(1,0,0,1,-61.44,-61.44)">
                <clipPath id="_clip1">
                    <rect x="0" y="0" width="122.88" height="122.88"/>
                </clipPath>
                <g clip-path="url(#_clip1)">
                    <g>
                        <path d="M67.12,67.11L67.12,87.85C69.25,87.38 71.23,86.74 73.05,85.92C75.94,84.63 78.47,82.9 80.63,80.72L80.64,80.71L80.63,80.7L80.64,80.69C80.7,80.63 80.77,80.56 80.84,80.51C81.38,79.96 81.9,79.39 82.38,78.79C82.89,78.17 83.39,77.47 83.89,76.71C85.69,73.95 87.01,70.75 87.83,67.11L67.12,67.11ZM61.55,61.54L61.55,61.35L61.33,61.35L61.33,61.54L61.55,61.54ZM67.12,55.76L87.84,55.76C87.69,55.08 87.53,54.41 87.35,53.77C86.84,51.93 86.19,50.2 85.39,48.57C81.98,41.58 75.88,37.09 67.12,35.08L67.12,55.76ZM55.76,55.77L55.76,35.06C55.11,35.2 54.49,35.36 53.89,35.53C49.21,36.85 45.31,39.07 42.2,42.18C42.14,42.24 42.07,42.31 42,42.37C39.92,44.48 38.25,46.95 36.99,49.76C36.17,51.6 35.51,53.6 35.02,55.77L55.76,55.77ZM55.76,67.12L35.08,67.12C35.51,69.22 36.11,71.18 36.9,72.98C38.16,75.86 39.88,78.4 42.06,80.6L42.07,80.59C44.29,82.81 46.85,84.57 49.75,85.88C51.6,86.71 53.6,87.36 55.76,87.84L55.76,67.12ZM63.38,122.88L59.5,122.88C57.44,122.88 55.76,121.21 55.76,119.14L55.76,99.32C51.94,98.68 48.43,97.66 45.23,96.25C41.02,94.4 37.35,91.9 34.2,88.75C31.06,85.61 28.56,81.93 26.7,77.69C25.29,74.47 24.26,70.95 23.63,67.11L3.74,67.11C1.67,67.12 0,65.45 0,63.38C0,63.27 0.01,63.16 0.01,63.05L0.01,59.5C0.01,57.44 1.68,55.78 3.73,55.78L3.73,55.77L23.57,55.77C24.14,52.09 25.13,48.66 26.52,45.48C28.36,41.29 30.89,37.58 34.12,34.34C37.35,31.1 41.06,28.54 45.27,26.66C48.49,25.22 51.99,24.19 55.77,23.56L55.77,3.74C55.77,1.68 57.44,0.02 59.49,0.02L59.49,0L63.38,0C65.44,0 67.12,1.67 67.12,3.74C67.12,3.85 67.11,3.96 67.11,4.07L67.11,23.56C70.89,24.19 74.4,25.23 77.63,26.68C81.86,28.57 85.59,31.16 88.84,34.42C92.1,37.7 94.65,41.41 96.48,45.57C97.87,48.73 98.84,52.13 99.4,55.78L119.15,55.78C121.21,55.78 122.89,57.45 122.89,59.52C122.89,59.63 122.88,59.74 122.88,59.85L122.88,63.41C122.88,65.47 121.21,67.13 119.16,67.13L119.16,67.14L99.39,67.14C99.36,67.35 99.33,67.55 99.29,67.76C99.07,69.08 98.79,70.37 98.46,71.64C96.73,78.19 93.51,83.83 88.81,88.55L88.8,88.56L88.81,88.57L88.8,88.58C88.73,88.65 88.66,88.72 88.58,88.78C87.74,89.61 86.86,90.4 85.93,91.15C84.9,91.99 83.88,92.74 82.85,93.42C78.28,96.42 73.03,98.41 67.11,99.37L67.11,119.17C67.12,121.21 65.45,122.88 63.38,122.88Z" style="fill:white;fill-rule:nonzero;stroke:white;stroke-width:1px;"/>
                    </g>
                </g>
            </g>
        </g>
    </g>
</svg>
